<svg id="bloc-tec-logo" xmlns="http://www.w3.org/2000/svg" xmlns:xlink="http://www.w3.org/1999/xlink" width="1728" height="516" viewBox="0 0 1728 516">
  <defs>
    <linearGradient id="linear-gradient" y1="0.051" x2="1" y2="0.949" gradientUnits="objectBoundingBox">
      <stop offset="0" stop-color="#54d193"/>
      <stop offset="1" stop-color="#54bcd1"/>
    </linearGradient>
  </defs>
  <rect id="bg" width="1728" height="516" fill="url(#linear-gradient)"/>
  <path id="bloc-tek-logo" d="M336,420H108a12,12,0,0,1-12-12V252a12,12,0,0,1,12-12h96v36H132V384H312V276H252a12,12,0,0,1-12-12V108a12,12,0,0,1,12-12H480a12,12,0,0,1,12,12V264a12,12,0,0,1-12,12H384V240h72V132H276V240h60a12,12,0,0,1,12,12V408a12,12,0,0,1-12,12ZM1632,318H1524a12,12,0,0,1-12-12V210a12,12,0,0,1,12-12h108v24h-96v72h96v24Zm-144,0H1380a12,12,0,0,1-12-12V210a12,12,0,0,1,12-12h108v24h-96v24h96v24h-96v24h96v24Zm-192,0h-24V222h-48V198h120v24h-48Zm-216,0H972a12,12,0,0,1-12-12V210a12,12,0,0,1,12-12h108v24H984v72h96v24Zm-156,0H828a12,12,0,0,1-12-12V210a12,12,0,0,1,12-12h96a12,12,0,0,1,12,12v96a12,12,0,0,1-12,12Zm-84-96v72h72V222Zm-48,96H708a12,12,0,0,1-12-12V198h24v96h72v24Zm-132,0H552V198H660a12,12,0,0,1,12,12v96a12,12,0,0,1-12,12Zm-84-96v72h72V270H588V246h60V222Zm624,48h-96V246h96v24Z"/>
</svg>
